# xmcd
#
# Track frame offsets:
#	316
#	17660
#	31315
#	44381
#	60172
#	74942
#	88179
#	101818
#	122382
#	138171
#	154477
#	169800
#
# Disc length: 2459 seconds
#
# Revision: 1
# Processed by: cddbd v1.5.2PL0 Copyright (c) Steve Scherf et al.
# Submitted via: audiograbber 1.83.01
#
DISCID=a409970c
DTITLE=Alf Degnebolig - Love Song Lady
DYEAR=2008
DGENRE=Country
TTITLE0=Designated Drinker
TTITLE1=The Most Beautiful Girl
TTITLE2=Up To My Ears In Tears
TTITLE3=Love Song Lady
TTITLE4=Long Sermon
TTITLE5=Why
TTITLE6=Leaving Side
TTITLE7=Meet Me In Stockholm
TTITLE8=Your Man
TTITLE9=Make My Night Time
TTITLE10=Lonesome Fugitive
TTITLE11=We All Get Lucky Sometime
EXTD=
EXTT0=
EXTT1=
EXTT2=
EXTT3=
EXTT4=
EXTT5=
EXTT6=
EXTT7=
EXTT8=
EXTT9=
EXTT10=
EXTT11=
PLAYORDER=
